<svg xmlns="http://www.w3.org/2000/svg" xmlns:xlink="http://www.w3.org/1999/xlink">
    <symbol viewBox="0 0 48 48" id="telegram">
        <circle style="fill:#29B6F6;" cx="24" cy="24" r="20"/><path style="fill:#FFFFFF;" d="M33.95,15l-3.746,19.126c0,0-0.161,0.874-1.245,0.874c-0.576,0-0.873-0.274-0.873-0.274l-8.114-6.733  l-3.97-2.001l-5.095-1.355c0,0-0.907-0.262-0.907-1.012c0-0.625,0.933-0.923,0.933-0.923l21.316-8.468  c-0.001-0.001,0.651-0.235,1.126-0.234C33.667,14,34,14.125,34,14.5C34,14.75,33.95,15,33.95,15z"/><path style="fill:#B0BEC5;" d="M23,30.505l-3.426,3.374c0,0-0.149,0.115-0.348,0.12c-0.069,0.002-0.143-0.009-0.219-0.043  l0.964-5.965L23,30.505z"/><path style="fill:#CFD8DC;" d="M29.897,18.196c-0.169-0.22-0.481-0.26-0.701-0.093L16,26c0,0,2.106,5.892,2.427,6.912  c0.322,1.021,0.58,1.045,0.58,1.045l0.964-5.965l9.832-9.096C30.023,18.729,30.064,18.416,29.897,18.196z"/>
    </symbol>

    <symbol viewBox="0 0 48 48" id="vk">
        <path fill="#1976d2" d="M42,37c0,2.762-2.238,5-5,5H11c-2.761,0-5-2.238-5-5V11c0-2.762,2.239-5,5-5h26c2.762,0,5,2.238,5,5 V37z"> </path> <path fill="#fff" d="M35.937,18.041c0.046-0.151,0.068-0.291,0.062-0.416C35.984,17.263,35.735,17,35.149,17h-2.618 c-0.661,0-0.966,0.4-1.144,0.801c0,0-1.632,3.359-3.513,5.574c-0.61,0.641-0.92,0.625-1.25,0.625C26.447,24,26,23.786,26,23.199 v-5.185C26,17.32,25.827,17,25.268,17h-4.649C20.212,17,20,17.32,20,17.641c0,0.667,0.898,0.827,1,2.696v3.623 C21,24.84,20.847,25,20.517,25c-0.89,0-2.642-3-3.815-6.932C16.448,17.294,16.194,17,15.533,17h-2.643 C12.127,17,12,17.374,12,17.774c0,0.721,0.6,4.619,3.875,9.101C18.25,30.125,21.379,32,24.149,32c1.678,0,1.85-0.427,1.85-1.094 v-2.972C26,27.133,26.183,27,26.717,27c0.381,0,1.158,0.25,2.658,2c1.73,2.018,2.044,3,3.036,3h2.618 c0.608,0,0.957-0.255,0.971-0.75c0.003-0.126-0.015-0.267-0.056-0.424c-0.194-0.576-1.084-1.984-2.194-3.326 c-0.615-0.743-1.222-1.479-1.501-1.879C32.062,25.36,31.991,25.176,32,25c0.009-0.185,0.105-0.361,0.249-0.607 C32.223,24.393,35.607,19.642,35.937,18.041z"></path>
    </symbol>

    <symbol viewBox="0 0 48 48" id="github">
        <path d="M17.791,46.836C18.502,46.53,19,45.823,19,45v-5.4c0-0.197,0.016-0.402,0.041-0.61C19.027,38.994,19.014,38.997,19,39 c0,0-3,0-3.6,0c-1.5,0-2.8-0.6-3.4-1.8c-0.7-1.3-1-3.5-2.8-4.7C8.9,32.3,9.1,32,9.7,32c0.6,0.1,1.9,0.9,2.7,2c0.9,1.1,1.8,2,3.4,2 c2.487,0,3.82-0.125,4.622-0.555C21.356,34.056,22.649,33,24,33v-0.025c-5.668-0.182-9.289-2.066-10.975-4.975 c-3.665,0.042-6.856,0.405-8.677,0.707c-0.058-0.327-0.108-0.656-0.151-0.987c1.797-0.296,4.843-0.647,8.345-0.714 c-0.112-0.276-0.209-0.559-0.291-0.849c-3.511-0.178-6.541-0.039-8.187,0.097c-0.02-0.332-0.047-0.663-0.051-0.999 c1.649-0.135,4.597-0.27,8.018-0.111c-0.079-0.5-0.13-1.011-0.13-1.543c0-1.7,0.6-3.5,1.7-5c-0.5-1.7-1.2-5.3,0.2-6.6 c2.7,0,4.6,1.3,5.5,2.1C21,13.4,22.9,13,25,13s4,0.4,5.6,1.1c0.9-0.8,2.8-2.1,5.5-2.1c1.5,1.4,0.7,5,0.2,6.6c1.1,1.5,1.7,3.2,1.6,5 c0,0.484-0.045,0.951-0.11,1.409c3.499-0.172,6.527-0.034,8.204,0.102c-0.002,0.337-0.033,0.666-0.051,0.999 c-1.671-0.138-4.775-0.28-8.359-0.089c-0.089,0.336-0.197,0.663-0.325,0.98c3.546,0.046,6.665,0.389,8.548,0.689 c-0.043,0.332-0.093,0.661-0.151,0.987c-1.912-0.306-5.171-0.664-8.879-0.682C35.112,30.873,31.557,32.75,26,32.969V33 c2.6,0,5,3.9,5,6.6V45c0,0.823,0.498,1.53,1.209,1.836C41.37,43.804,48,35.164,48,25C48,12.318,37.683,2,25,2S2,12.318,2,25 C2,35.164,8.63,43.804,17.791,46.836z"></path>
    </symbol>
</svg>

