<svg version="1.0" xmlns="http://www.w3.org/2000/svg"
 width="512.000000pt" height="512.000000pt" viewBox="0 0 512.000000 512.000000"
 preserveAspectRatio="xMidYMid meet">

<g transform="translate(0.000000,512.000000) scale(0.100000,-0.100000)"
fill="#5B0C47" stroke="none">
<path d="M2350 4550 c-379 -47 -735 -191 -1020 -413 -96 -75 -253 -230 -330
-327 -281 -353 -440 -802 -440 -1248 0 -716 386 -1381 1011 -1738 570 -327
1271 -349 1864 -60 210 103 348 200 518 366 313 303 506 675 584 1125 24 138
23 470 0 610 -72 416 -248 773 -528 1070 -302 319 -697 527 -1139 600 -114 19
-415 27 -520 15z m398 -161 c305 -33 589 -137 843 -308 557 -374 866 -1034
799 -1702 -23 -228 -82 -426 -191 -644 -136 -275 -326 -494 -585 -681 -103
-73 -330 -190 -455 -233 -547 -188 -1146 -108 -1630 218 -448 301 -739 787
-798 1333 -63 574 171 1178 604 1560 387 342 913 512 1413 457z"/>
<path d="M2183 3097 c-311 -311 -343 -345 -343 -375 0 -44 38 -82 82 -82 29 0
59 27 295 262 l263 262 0 -717 0 -718 25 -24 c32 -33 78 -33 110 0 l25 24 0
718 0 717 263 -262 c236 -235 266 -262 295 -262 44 0 82 38 82 82 0 30 -32 64
-343 375 -318 319 -345 343 -377 343 -32 0 -59 -24 -377 -343z"/>
</g>
</svg>
